<?xml version="1.0" standalone="no"?>
<!DOCTYPE svg PUBLIC "-//W3C//DTD SVG 1.1//EN" "http://www.w3.org/Graphics/SVG/1.1/DTD/svg11.dtd" >
<svg xmlns="http://www.w3.org/2000/svg">
<metadata></metadata>
<defs>
<font id="8-bit_limit_brkregular" horiz-adv-x="1007" >
<font-face units-per-em="2048" ascent="1638" descent="-410" />
<missing-glyph horiz-adv-x="1024" />
<glyph horiz-adv-x="0" />
<glyph horiz-adv-x="682" />
<glyph unicode=" "  horiz-adv-x="1024" />
<glyph unicode="&#x09;" horiz-adv-x="1024" />
<glyph unicode="&#xa0;" horiz-adv-x="1024" />
<glyph unicode="!" horiz-adv-x="466" d="M20 133h134v-133h157v133h133v158h-133v133h-157v-133h-134v-158zM20 1077h134v-538h157v133h133v1100h-155v-134h-135v-135h-134v-426z" />
<glyph unicode="," horiz-adv-x="466" d="M20 -111v-155h156v133h135v135h133v291h-133v133h-157v-133h-134v-156h134v-248h-134z" />
<glyph unicode="-" d="M20 614v156h134v133h831v-155h-135v-134h-830z" />
<glyph unicode="." horiz-adv-x="466" d="M20 135h134v-133h157v133h133v158h-133v133h-157v-133h-134v-158z" />
<glyph unicode="0" d="M20 406h134v-271h135v-133h293v133h268v135h135v1102h-135v270h-135v134h-426v-134h-133v-157h403v-133h133v-1059h-246v135h-135v942h-157v-133h-134v-831z" />
<glyph unicode="1" horiz-adv-x="466" d="M20 1483h134v-1481h157v133h133v1639h-155v-134h-269v-157z" />
<glyph unicode="2" d="M20 2h830v133h135v158h-539v113h136v135h133v135h135v270h135v426h-135v270h-135v134h-291v-134h-270v-135h-134v-426h156v136h135v268h248v-133h133v-521h-133v-135h-135v-133h-135v-135h-135v-135h-134v-291z" />
<glyph unicode="3" horiz-adv-x="872" d="M20 1487h156v133h248v-135h133v-248h-133v-135h-135v-135h-133v-156h401v-383h-133v-135h-135v-135h-133v-156h290v133h136v135h133v136h135v561h-135v135h-133v115h133v133h135v292h-135v134h-561v-134h-134v-155z" />
<glyph unicode="4" horiz-adv-x="872" d="M20 676h539v-674h156v133h135v1100h-156v-133h-135v-268h-248v247h135v269h136v135h133v135h135v156h-291v-134h-135v-135h-135v-135h-135v-270h-134v-426z" />
<glyph unicode="5" horiz-adv-x="872" d="M20 946h404v-135h133v-383h-133v-135h-135v-135h-133v-156h290v133h136v135h133v136h135v425h-135v271h-133v135h-406v248h539v135h135v156h-696v-269h-134v-561z" />
<glyph unicode="6" d="M20 406h134v-271h135v-133h293v133h268v135h135v697h-135v135h-424v-156h133v-135h133v-518h-246v135h-135v924h135v133h136v135h133v156h-291v-134h-135v-135h-135v-135h-134v-966z" />
<glyph unicode="7" d="M20 1620h134v-135h538v-113h-133v-270h-135v-271h-135v-403h-133v-426h155v133h135v135h136v541h133v270h135v271h135v426h-674v133h-157v-133h-134v-158z" />
<glyph unicode="8" d="M20 268h134v-135h135v-133h426v133h135v135h135v426h-135v135h-133v115h133v135h135v561h-135v134h-291v-134h-133v-157h266v-381h-246v133h-135v403h-157v-133h-134v-426h134v-135h135v-115h-135v-135h-134v-426zM311 156v516h248v-133h133v-383h-381z" />
<glyph unicode="9" d="M20 809h134v-133h426v153h-134v136h-135v518h248v-133h133v-924h-133v-135h-135v-135h-133v-156h291v133h133v135h135v135h135v967h-135v270h-135v134h-291v-134h-270v-135h-134v-696z" />
<glyph unicode="?" horiz-adv-x="872" d="M20 1485h156v133h248v-135h133v-518h-133v-136h-133v-288h155v133h136v135h133v135h135v696h-135v134h-561v-134h-134v-155zM156 133h133v-133h157v133h134v158h-134v133h-157v-133h-133v-158z" />
<glyph unicode="A" d="M20 2h156v133h135v268h383v-401h156v133h135v832h-135v405h-135v270h-133v134h-158v-134h-135v-270h-135v-405h-134v-965zM311 698v248h135v404h113v-404h133v-248h-381z" />
<glyph unicode="B" d="M20 1485h134v-1350h135v-133h426v133h135v135h135v561h-133v115h133v426h-135v270h-135v134h-561v-134h-134v-157zM446 293v1192h113v-133h133v-385h-131v-156h131v-518h-246z" />
<glyph unicode="C" d="M20 406h134v-271h135v-133h426v133h270v158h-539v135h-135v1057h383v-268h156v135h135v290h-135v134h-426v-134h-270v-135h-134v-1101z" />
<glyph unicode="D" d="M20 1485h134v-1350h135v-133h426v133h135v135h135v1102h-135v270h-135v134h-561v-134h-134v-157zM446 293v1192h113v-133h133v-1059h-246z" />
<glyph unicode="E" d="M20 811h134v-809h696v133h135v158h-539v518h404v135h135v156h-539v383h404v135h135v156h-831v-134h-134v-157h134v-518h-134v-156z" />
<glyph unicode="F" d="M20 811h134v-809h157v133h135v676h404v135h135v156h-539v383h404v135h135v156h-831v-134h-134v-157h134v-518h-134v-156z" />
<glyph unicode="G" d="M20 406h134v-271h135v-133h426v133h135v135h135v426h-135v135h-289v-155h131v-383h-246v135h-135v1057h383v-268h156v135h135v290h-135v134h-426v-134h-270v-135h-134v-1101z" />
<glyph unicode="H" d="M20 811h134v-809h157v133h135v674h248v-807h156v133h135v1641h-156v-134h-268v-157h131v-381h-246v672h-157v-134h-269v-157h134v-518h-134v-156z" />
<glyph unicode="I" horiz-adv-x="466" d="M20 1483h134v-1481h157v133h133v1639h-155v-134h-269v-157z" />
<glyph unicode="J" horiz-adv-x="602" d="M20 -111v-155h291v133h133v135h136v1774h-156v-134h-268v-155h131v-1462h-133v-136h-134z" />
<glyph unicode="K" d="M20 1485h134v-1483h426v156h-134v516h113v-268h135v-271h135v-133h156v291h-135v270h-135v268h-133v250h133v136h135v135h135v290h-135v134h-156v-134h-133v-157h266v-113h-133v-135h-135v-133h-113v672h-157v-134h-269v-157z" />
<glyph unicode="L" d="M20 1485h134v-1483h696v133h135v158h-539v1483h-157v-134h-269v-157z" />
<glyph unicode="M" d="M20 2h156v133h135v674h113v-266h158v266h112v-807h156v133h135v696h-133v521h133v424h-291v-404h-135v-403h-113v403h-135v404h-291v-424h134v-521h-134v-829z" />
<glyph unicode="N" d="M20 1485h134v-1483h157v133h135v674h113v-268h135v-271h135v-268h156v1774h-156v-134h-135v-403h-112v268h-136v269h-426v-291z" />
<glyph unicode="O" d="M20 406h134v-271h135v-133h293v133h268v135h135v1102h-135v270h-135v134h-426v-134h-133v-157h403v-133h133v-1059h-246v135h-135v942h-157v-133h-134v-831z" />
<glyph unicode="P" d="M20 1485h134v-1483h157v133h135v1350h113v-133h133v-521h-131v-153h289v133h135v561h-135v270h-135v134h-561v-134h-134v-157z" />
<glyph unicode="Q" d="M20 408h134v-271h135v-135h270v-133h291v133h135v158h-270v135h-269v135h-135v1057h248v-135h135v-942h156v133h135v831h-135v271h-135v133h-291v-133h-270v-136h-134v-1101z" />
<glyph unicode="R" d="M20 1485h134v-1483h157v133h135v1350h246v-518h-131v-156h133v-809h156v133h135v696h-133v115h133v426h-135v270h-135v134h-561v-134h-134v-157z" />
<glyph unicode="S" d="M20 135h134v-133h428v133h268v135h135v426h-135v135h-135v136h-133v135h-136v135h-135v248h248v-133h156v133h135v157h-135v134h-426v-134h-135v-135h-134v-426h134v-135h135v-135h135v-135h135v-135h133v-248h-381v133h-157v-133h-134v-158z" />
<glyph unicode="T" d="M20 1485h402v-113h-131v-1370h155v133h136v1350h268v135h135v156h-831v-134h-134v-157z" />
<glyph unicode="U" d="M20 133h134v-133h292v133h113v-133h156v133h270v158h-135v1483h-156v-134h-135v-1349h-248v1483h-157v-134h-134v-1507z" />
<glyph unicode="V" d="M20 944h134v-541h135v-270h135v-133h158v133h133v270h135v541h135v830h-156v-134h-135v-675h-135v-539h-113v539h-135v809h-157v-134h-134v-696z" />
<glyph unicode="W" d="M20 539h134v-406h135v-133h157v537h113v-404h135v-133h156v539h135v1235h-156v-1213h-114v1213h-156v-134h-135v-1079h-113v1213h-157v-134h-134v-1101z" />
<glyph unicode="X" d="M20 0h289v156h-133v247h135v269h113v-133h135v-406h135v-133h156v133h135v158h-135v270h-135v268h-133v250h133v271h135v268h135v156h-291v-404h-135v-133h-113v133h-135v404h-291v-424h134v-406h135v-250h-135v-268h-134v-426z" />
<glyph unicode="Y" d="M20 1350h134v-406h135v-405h135v-539h158v133h133v676h135v405h135v426h-135v134h-156v-134h-133v-157h266v-248h-133v-404h-112v134h-136v405h-135v404h-291v-424z" />
<glyph unicode="Z" d="M20 133h134v-133h696v133h135v158h-674v112h135v271h136v270h133v270h135v269h135v157h-674v134h-157v-134h-134v-157h134v-133h403v-250h-133v-271h-135v-268h-135v-270h-134v-158z" />
<glyph unicode="a" d="M20 133h134v-133h292v133h134v158h-269v246h248v-134h135v-403h156v133h135v428h-135v268h-135v271h-133v135h-158v-135h-268v-156h268v-135h133v-115h-403v-133h-134v-428z" />
<glyph unicode="b" d="M20 1483h134v-1350h135v-133h426v133h270v967h-135v135h-156v-135h-133v-156h131v-788h-246v1618h-157v-134h-269v-157z" />
<glyph unicode="c" d="M20 403h134v-270h135v-133h426v133h270v158h-539v135h-135v516h383v-266h156v133h135v291h-135v135h-426v-135h-270v-135h-134v-562z" />
<glyph unicode="d" d="M20 403h134v-270h135v-133h293v133h268v135h135v832h-135v270h-135v135h-269v133h-292v-133h-134v-155h269v-136h270v-135h133v-788h-246v135h-135v518h133v156h-290v-135h-134v-562z" />
<glyph unicode="e" d="M20 270h134v-135h135v-133h293v133h268v158h-404v135h-135v516h381v-248h-266v-153h289v133h135v135h135v291h-270v135h-291v-135h-270v-135h-134v-697z" />
<glyph unicode="f" d="M20 811h134v-809h157v133h135v676h404v135h135v156h-539v383h248v-268h156v135h135v290h-135v134h-291v-134h-270v-135h-135v-540h-134v-156z" />
<glyph unicode="g" d="M20 -133h134v-133h696v133h135v428h-135v133h-135v135h-269v135h-135v383h248v-403h156v135h135v270h135v154h-831v-133h-134v-426h134v-270h270v-136h268v-383h-381v404h-157v-133h-134v-293z" />
<glyph unicode="h" d="M20 1487h134v-1483h157v133h135v811h136v133h112v-1212h156v268h135v967h-135v133h-291v-131h-113v672h-157v-133h-269v-158z" />
<glyph unicode="i" horiz-adv-x="466" d="M20 809h134v-807h157v133h133v965h-155v-133h-269v-158zM20 1350h134v-136h157v136h133v155h-133v133h-157v-133h-134v-155z" />
<glyph unicode="j" horiz-adv-x="602" d="M20 -111v-155h291v133h133v135h136v1100h-156v-133h-268v-158h131v-786h-133v-136h-134zM156 1352h133v-133h155v133h136v155h-136v133h-155v-133h-133v-155z" />
<glyph unicode="k" horiz-adv-x="1142" d="M20 1487h134v-1485h157v133h135v268h113v-133h135v-135h135v-133h156v156h-135v270h-133v248h133v135h135v135h135v156h-135v135h-156v-135h-133v-156h131v-115h-133v-133h-248v1078h-157v-134h-269v-155z" />
<glyph unicode="l" horiz-adv-x="466" d="M20 1483h134v-1481h157v133h133v1639h-155v-134h-269v-157z" />
<glyph unicode="m" d="M20 2h156v133h135v404h113v-267h158v267h112v-537h156v133h135v561h-133v250h133v291h-291v-270h-135v-269h-113v269h-135v270h-291v-291h134v-250h-134v-694z" />
<glyph unicode="n" d="M20 946h134v-944h157v133h135v811h136v133h112v-1077h156v133h135v967h-135v135h-291v-133h-113v133h-157v-135h-269v-156z" />
<glyph unicode="o" d="M20 406h134v-271h135v-133h293v133h268v135h135v561h-135v271h-135v135h-426v-135h-133v-156h403v-135h133v-518h-246v135h-135v403h-157v-135h-134v-290z" />
<glyph unicode="p" d="M20 948h134v-1214h157v133h135v1081h136v133h110v-786h-131v-156h289v133h135v832h-135v133h-291v-131h-113v131h-157v-133h-269v-156z" />
<glyph unicode="q" d="M20 272h134v-270h135v-135h270v-133h291v133h135v158h-270v135h-269v135h-135v651h248v-133h133v-385h-131v-154h289v134h135v426h-135v270h-135v133h-426v-133h-135v-135h-134v-697z" />
<glyph unicode="r" d="M20 946h134v-944h426v156h-134v653h136v133h112v-266h156v133h135v291h-135v135h-156v-135h-135v-133h-113v268h-157v-135h-269v-156z" />
<glyph unicode="s" d="M20 135h134v-133h428v133h268v135h135v293h-135v133h-268v135h-136v113h248v-131h156v133h135v156h-135v135h-291v-135h-270v-135h-133v-291h133v-135h270v-135h133v-113h-381v133h-157v-133h-134v-158z" />
<glyph unicode="t" d="M20 811h269v-676h135v-133h291v133h135v158h-268v518h268v135h135v156h-403v538h-158v-133h-135v-405h-135v-135h-134v-156z" />
<glyph unicode="u" d="M20 946h134v-811h135v-133h293v133h112v-133h156v133h135v1102h-156v-135h-135v-809h-248v944h-157v-135h-269v-156z" />
<glyph unicode="v" d="M20 946h134v-270h135v-406h135v-268h291v268h135v271h135v561h-135v135h-156v-135h-133v-156h266v-383h-133v-135h-112v403h-136v406h-157v-135h-269v-156z" />
<glyph unicode="w" d="M20 406h134v-271h135v-133h157v268h113v-135h135v-133h156v268h135v967h-156v-809h-114v809h-156v-135h-135v-674h-113v809h-157v-135h-134v-696z" />
<glyph unicode="x" d="M20 135h134v-133h290v156h-133v245h248v-133h135v-268h156v133h135v158h-135v270h-133v113h133v270h135v156h-135v135h-289v-156h131v-247h-110v133h-136v270h-157v-135h-269v-156h134v-135h135v-135h133v-113h-133v-135h-135v-135h-134v-158z" />
<glyph unicode="y" d="M20 948h134v-270h135v-406h133v-247h-133v-136h-133v-155h290v133h136v135h133v270h135v271h135v561h-135v133h-156v-133h-133v-156h266v-385h-133v-133h-112v404h-136v403h-157v-133h-269v-156z" />
<glyph unicode="z" d="M20 2h830v133h135v158h-674v113h135v135h136v135h133v135h135v135h135v156h-674v135h-157v-135h-134v-156h134v-135h403v-115h-133v-133h-135v-135h-135v-135h-134v-291z" />
<glyph unicode="&#xad;" d="M20 614v156h134v133h831v-155h-135v-134h-830z" />
<glyph unicode="&#x2000;" horiz-adv-x="955" />
<glyph unicode="&#x2001;" horiz-adv-x="1911" />
<glyph unicode="&#x2002;" horiz-adv-x="955" />
<glyph unicode="&#x2003;" horiz-adv-x="1911" />
<glyph unicode="&#x2004;" horiz-adv-x="637" />
<glyph unicode="&#x2005;" horiz-adv-x="477" />
<glyph unicode="&#x2006;" horiz-adv-x="318" />
<glyph unicode="&#x2007;" horiz-adv-x="318" />
<glyph unicode="&#x2008;" horiz-adv-x="238" />
<glyph unicode="&#x2009;" horiz-adv-x="382" />
<glyph unicode="&#x200a;" horiz-adv-x="106" />
<glyph unicode="&#x2010;" d="M20 614v156h134v133h831v-155h-135v-134h-830z" />
<glyph unicode="&#x2011;" d="M20 614v156h134v133h831v-155h-135v-134h-830z" />
<glyph unicode="&#x2012;" d="M20 614v156h134v133h831v-155h-135v-134h-830z" />
<glyph unicode="&#x2013;" horiz-adv-x="1066" d="M20 614v156h142v133h882v-155h-143v-134h-881z" />
<glyph unicode="&#x2014;" horiz-adv-x="2090" d="M20 614v156h284v133h1764v-155h-287v-134h-1761z" />
<glyph unicode="&#x202f;" horiz-adv-x="382" />
<glyph unicode="&#x205f;" horiz-adv-x="477" />
<glyph unicode="&#x25fc;" horiz-adv-x="1239" d="M0 0v1239h1239v-1239h-1239z" />
</font>
</defs>
</svg>
